<svg xmlns="http://www.w3.org/2000/svg" viewBox="0 0 64 64"><defs><style>.cls-1{fill:#d4effc;}.cls-2{fill:#5ce0bf;}.cls-3{fill:#ffca6b;}.cls-4{fill:#99a1b1;}.cls-5{fill:#e1e4ed;}.cls-6{fill:#707789;}.cls-7{fill:#43c7b5;}.cls-8{fill:#393045;}</style></defs><title>17-chronometer</title><g id="_17-chronometer" data-name="17-chronometer"><path class="cls-1" d="M32,19A19,19,0,1,1,13,38,19,19,0,0,1,32,19ZM45,38A13,13,0,0,0,32,25V38l-9.19,9.19A13,13,0,0,0,45,38Z"/><path class="cls-2" d="M32,25a13,13,0,1,1-9.19,22.19L32,38Z"/><path class="cls-3" d="M10.61,15.61,6.87,19.34a2.282,2.282,0,0,1-3.21,0A2.256,2.256,0,0,1,3,17.74a2.3,2.3,0,0,1,.66-1.61l7.47-7.47a2.282,2.282,0,0,1,3.21,0,2.256,2.256,0,0,1,.66,1.6,2.3,2.3,0,0,1-.66,1.61Z"/><path class="cls-3" d="M53.4,15.61l-3.74-3.74A2.3,2.3,0,0,1,49,10.26a2.256,2.256,0,0,1,.66-1.6,2.282,2.282,0,0,1,3.21,0l7.47,7.47A2.3,2.3,0,0,1,61,17.74a2.256,2.256,0,0,1-.66,1.6,2.282,2.282,0,0,1-3.21,0Z"/><path class="cls-4" d="M42,1a3,3,0,0,1,0,6H22a3,3,0,0,1,0-6Z"/><path class="cls-4" d="M37,7v6.5a25.25,25.25,0,0,0-10,0V7Z"/><path class="cls-5" d="M37,13.5a25.25,25.25,0,1,1-5-.5A24.886,24.886,0,0,1,37,13.5ZM51,38A19,19,0,1,0,32,57,19,19,0,0,0,51,38Z"/><rect class="cls-6" x="27" y="7" width="10" height="3"/><path class="cls-6" d="M42,1H22a3,3,0,0,0-3,3H45A3,3,0,0,0,42,1Z"/><path class="cls-7" d="M22.81,47.19a13,13,0,0,0,18.383,0L32,38Z"/><path class="cls-8" d="M32,18A20,20,0,1,0,52,38,20.023,20.023,0,0,0,32,18Zm0,38A18,18,0,1,1,50,38,18.021,18.021,0,0,1,32,56Z"/><path class="cls-8" d="M61.047,15.423,53.573,7.949a3.293,3.293,0,0,0-4.619,0A3.231,3.231,0,0,0,48,10.26a3.287,3.287,0,0,0,.945,2.309l.008.008,3.028,3.028-2.853,2.853A25.849,25.849,0,0,0,38,12.713V8h4a4,4,0,0,0,0-8H22a4,4,0,0,0,0,8h4v4.713a25.848,25.848,0,0,0-11.128,5.745l-2.853-2.853,3.029-3.029.007-.007A3.287,3.287,0,0,0,16,10.26a3.237,3.237,0,0,0-.957-2.311,3.294,3.294,0,0,0-4.62,0L2.945,15.431A3.287,3.287,0,0,0,2,17.74a3.244,3.244,0,0,0,3.264,3.254,3.278,3.278,0,0,0,2.312-.946l3.029-3.029,2.809,2.809a26,26,0,1,0,37.173,0L53.4,17.023l3.028,3.028a3.295,3.295,0,0,0,4.619,0A3.231,3.231,0,0,0,62,17.74,3.293,3.293,0,0,0,61.047,15.423ZM6.167,18.629a1.288,1.288,0,0,1-1.8,0A1.253,1.253,0,0,1,4,17.74a1.291,1.291,0,0,1,.367-.9l7.466-7.466a1.287,1.287,0,0,1,1.8,0A1.253,1.253,0,0,1,14,10.26a1.294,1.294,0,0,1-.373.908ZM20,4a2,2,0,0,1,2-2H42a2,2,0,0,1,0,4H22A2,2,0,0,1,20,4ZM36,8v4.308a26.489,26.489,0,0,0-8,0V8ZM56,38A24,24,0,0,1,8,38,24.022,24.022,0,0,1,27.2,14.479a23.977,23.977,0,0,1,21.281,6.077l0,0A23.753,23.753,0,0,1,56,38Zm3.637-19.371a1.288,1.288,0,0,1-1.8,0l-7.465-7.465A1.3,1.3,0,0,1,50,10.26a1.25,1.25,0,0,1,.363-.889,1.286,1.286,0,0,1,1.8,0l7.462,7.462A1.3,1.3,0,0,1,60,17.74,1.25,1.25,0,0,1,59.637,18.629Z"/><path class="cls-8" d="M32,24a1,1,0,0,0-1,1V37.586l-8.9,8.9a1,1,0,0,0,0,1.414A14,14,0,1,0,32,24Zm0,26a11.9,11.9,0,0,1-7.747-2.839l8.454-8.454A1,1,0,0,0,33,38V26.041A12,12,0,0,1,32,50Z"/></g></svg>